<svg width="187" height="160" viewBox="0 0 187 160" fill="none" xmlns="http://www.w3.org/2000/svg">
<path d="M41.4815 5.33606L0 55.7322L41.4815 71.3724L65.679 12.2872L41.4815 5.33606Z" fill="#2F82FF"/>
<path d="M65.679 12.2872L41.4815 71.3724H145.185L120.988 12.2872H65.679Z" fill="#2F82FF"/>
<path d="M41.4815 71.3724L93.3333 160L145.185 71.3724H41.4815Z" fill="#2F82FF"/>
<path d="M0 55.7322L93.3333 160L41.4815 71.3724L0 55.7322Z" fill="#2F82FF"/>
<path d="M93.3333 160L186.667 55.7322L145.185 71.3724L93.3333 160Z" fill="#2F82FF"/>
<path d="M186.667 55.7322L145.185 5.33606L120.988 12.2872L145.185 71.3724L186.667 55.7322Z" fill="#2F82FF"/>
<path d="M41.4815 5.33606L65.679 12.2872H120.988L145.185 5.33606L93.3333 0L41.4815 5.33606Z" fill="#2F82FF"/>
<path d="M41.4815 5.33606L0 55.7322L41.4815 71.3723L65.679 12.2872L41.4815 5.33606Z" fill="url(#paint0_linear_3_697)" style="mix-blend-mode:soft-light"/>
<path d="M65.679 12.2872L41.4815 71.3723H145.185L120.988 12.2872H65.679Z" fill="url(#paint1_linear_3_697)" style="mix-blend-mode:plus-lighter"/>
<path d="M41.4815 71.3723L93.3333 160L145.185 71.3723H41.4815Z" fill="url(#paint2_linear_3_697)" style="mix-blend-mode:overlay"/>
<path d="M0 55.7322L93.3333 160L41.4815 71.3723L0 55.7322Z" fill="url(#paint3_linear_3_697)" style="mix-blend-mode:soft-light"/>
<path d="M93.3333 160L186.667 55.7322L145.185 71.3723L93.3333 160Z" fill="url(#paint4_linear_3_697)" style="mix-blend-mode:overlay"/>
<path d="M186.667 55.7322L145.185 5.33606L120.988 12.2872L145.185 71.3723L186.667 55.7322Z" fill="url(#paint5_linear_3_697)" style="mix-blend-mode:soft-light"/>
<path d="M41.4815 5.33606L65.679 12.2872H120.988L145.185 5.33606L93.3333 0L41.4815 5.33606Z" fill="url(#paint6_linear_3_697)" style="mix-blend-mode:soft-light"/>
<defs>
<linearGradient id="paint0_linear_3_697" x1="65.3333" y1="12.2353" x2="40.8034" y2="70.6015" gradientUnits="userSpaceOnUse">
<stop stop-color="#494949"/>
<stop offset="1" stop-color="#E9E9E9"/>
</linearGradient>
<linearGradient id="paint1_linear_3_697" x1="93.3333" y1="10.4348" x2="93.3333" y2="71.3043" gradientUnits="userSpaceOnUse">
<stop stop-color="white" stop-opacity="0.8"/>
<stop offset="1" stop-color="white" stop-opacity="0"/>
</linearGradient>
<linearGradient id="paint2_linear_3_697" x1="93.3333" y1="71.3043" x2="93.3333" y2="160" gradientUnits="userSpaceOnUse">
<stop stop-color="#4C4C4C"/>
<stop offset="1" stop-color="#B8B8B8"/>
</linearGradient>
<linearGradient id="paint3_linear_3_697" x1="41.4815" y1="71.3043" x2="93.8118" y2="159.717" gradientUnits="userSpaceOnUse">
<stop stop-color="#565656"/>
<stop offset="1" stop-color="#FAFAFA"/>
</linearGradient>
<linearGradient id="paint4_linear_3_697" x1="146.877" y1="72" x2="92.9546" y2="159.767" gradientUnits="userSpaceOnUse">
<stop stop-color="#323232"/>
<stop offset="1" stop-color="#9A9A9A"/>
</linearGradient>
<linearGradient id="paint5_linear_3_697" x1="119.259" y1="8.69565" x2="145.46" y2="71.1891" gradientUnits="userSpaceOnUse">
<stop stop-color="#494949"/>
<stop offset="1" stop-color="#999999"/>
</linearGradient>
<linearGradient id="paint6_linear_3_697" x1="93.3333" y1="1.86047" x2="93.3333" y2="12.1739" gradientUnits="userSpaceOnUse">
<stop stop-color="#7C7C7C"/>
<stop offset="1" stop-color="white"/>
</linearGradient>
</defs>
</svg>
