<!DOCTYPE svg PUBLIC "-//W3C//DTD SVG 1.1//EN" "http://www.w3.org/Graphics/SVG/1.1/DTD/svg11.dtd">
<!-- Uploaded to: SVG Repo, www.svgrepo.com, Transformed by: SVG Repo Mixer Tools -->
<svg version="1.1" id="Layer_1" xmlns="http://www.w3.org/2000/svg" xmlns:xlink="http://www.w3.org/1999/xlink" viewBox="0 0 512 512" xml:space="preserve" width="800px" height="800px" fill="#000000">
<g id="SVGRepo_bgCarrier" stroke-width="0"/>
<g id="SVGRepo_tracerCarrier" stroke-linecap="round" stroke-linejoin="round"/>
<g id="SVGRepo_iconCarrier"> <polygon style="fill:#3f3d37;" points="143.668,345.72 238.3,295.969 238.3,393.999 273.701,393.999 273.701,295.969 368.332,345.72 346.878,220.637 437.757,132.054 312.166,113.804 256.001,0 199.834,113.804 74.243,132.054 165.122,220.637 "/> <g> <polygon style="fill:#c09154;" points="188.354,169.131 235.097,162.338 256.001,119.984 276.904,162.338 323.646,169.131 289.823,202.101 297.807,248.653 256.001,226.673 214.194,248.653 222.178,202.101 "/> <polygon style="fill:#c09154;" points="356.302,476.6 356.302,376.299 155.7,376.299 155.7,476.6 120.299,476.6 120.299,512 391.702,512 391.702,476.6 "/> </g> <rect x="120.303" y="476.595" style="fill:#A2001D;" width="271.403" height="35.4"/> <rect x="220.604" y="441.195" style="fill:#3f3d37;" width="70.801" height="35.4"/> </g>
</svg>